# xmcd
#
# Track frame offsets:
# 150
# 14284
# 27165
# 43182
# 54932
# 70460
# 83102
# 96897
# 109737
# 122737
#
# Disc length: 1781 seconds
#
#
# Revision: 0
# Processed by: cddbd v1.5.1PL0 Copyright (c) Steve Scherf et al.
# Submitted via: FreeRIP 2.942 
#
DISCID=7e06f30a
DTITLE=The Country Dance Kings - The Great Country Line Dance Album
DYEAR=1900
DGENRE=Country
TTITLE0=Rock My World (little Country Girl)
TTITLE1=If Bubba Can Dance (I Can Too)
TTITLE2=God Blessed Texas
TTITLE3=Holdin' Heaven
TTITLE4=Blame It On Your Heart
TTITLE5=Dumas Walker
TTITLE6=Guitars, Cadillacs
TTITLE7=Super Love
TTITLE8=Indian Outlaw
TTITLE9=If The Good Die Young
EXTD=
EXTT0=
EXTT1=
EXTT2=
EXTT3=
EXTT4=
EXTT5=
EXTT6=
EXTT7=
EXTT8=
EXTT9=
PLAYORDER=
